<svg width="1339" height="593" viewBox="0 0 1339 593" fill="none" xmlns="http://www.w3.org/2000/svg">
<path d="M376.599 468.772C380.003 483.483 366.711 495.189 351.637 494.312C316.009 492.238 278.376 494.672 197.211 494.672C122.591 494.672 65.8638 495.906 33.9668 496.577C20.1628 496.867 8.8673 485.711 11.817 472.223C27.3973 400.979 105.638 318.999 197.211 318.999C287.308 318.999 360.307 398.358 376.599 468.772Z" fill="#F6C835"/>
<rect y="512.999" width="390" height="80" rx="25" fill="#F6C835"/>
<path d="M838.599 259.772C842.003 274.483 828.711 286.189 813.637 285.312C778.009 283.238 740.376 285.672 659.211 285.672C584.591 285.672 527.864 286.906 495.967 287.577C482.163 287.867 470.867 276.711 473.817 263.223C489.397 191.979 567.638 109.999 659.211 109.999C749.308 109.999 822.307 189.358 838.599 259.772Z" fill="#F6C835"/>
<rect x="451" y="512.999" width="390" height="80" rx="25" fill="#F6C835"/>
<path d="M1287.18 259.936C1285.67 274.961 1269.33 281.776 1255.33 276.102C1222.26 262.692 1185.84 252.906 1108.98 226.829C1038.32 202.855 984.199 185.798 953.778 176.185C940.612 172.025 933.5 157.832 940.627 146.006C978.271 83.5445 1078.7 31.0483 1165.42 60.4691C1250.74 89.4159 1294.37 188.022 1287.18 259.936Z" fill="#F6C835"/>
<rect x="902" y="512.999" width="390" height="80" rx="25" fill="#F6C835"/>
<path d="M224 308.999C224 320.597 214.598 329.999 203 329.999C191.402 329.999 182 320.597 182 308.999C182 297.401 191.402 286.999 203 286.999C214.598 286.999 224 297.401 224 308.999Z" fill="#F6C835"/>
<path d="M678 106.999C678 118.597 668.598 127.999 657 127.999C645.402 127.999 636 118.597 636 106.999C636 95.4006 645.402 81.9985 657 81.9985C668.598 81.9985 678 95.4006 678 106.999Z" fill="#F6C835"/>
<path d="M1167.77 49.2316C1172.43 38.6104 1184.82 33.7768 1195.44 38.4355C1206.06 43.0943 1210.89 55.481 1206.23 66.1022C1201.57 76.7234 1189.91 77.3481 1179.29 72.6894C1168.67 68.0307 1163.11 59.8527 1167.77 49.2316Z" fill="#F6C835"/>
<path d="M101.57 350.78L104.049 331.242C104.547 327.318 109.502 325.899 112.001 328.965L129.159 350.012C131.658 353.078 129.27 357.645 125.327 357.342L105.69 355.834C103.124 355.637 101.246 353.333 101.57 350.78Z" fill="#8AD4FF"/>
<path d="M101.57 350.78L104.049 331.242C104.547 327.318 109.502 325.899 112.001 328.965L129.159 350.012C131.658 353.078 129.27 357.645 125.327 357.342L105.69 355.834C103.124 355.637 101.246 353.333 101.57 350.78Z" fill="#8AD4FF"/>
<path d="M101.57 350.78L104.049 331.242C104.547 327.318 109.502 325.899 112.001 328.965L129.159 350.012C131.658 353.078 129.27 357.645 125.327 357.342L105.69 355.834C103.124 355.637 101.246 353.333 101.57 350.78Z" fill="#8AD4FF"/>
<path d="M101.57 350.78L104.049 331.242C104.547 327.318 109.502 325.899 112.001 328.965L129.159 350.012C131.658 353.078 129.27 357.645 125.327 357.342L105.69 355.834C103.124 355.637 101.246 353.333 101.57 350.78Z" fill="#8AD4FF"/>
<path d="M101.57 350.78L104.049 331.242C104.547 327.318 109.502 325.899 112.001 328.965L129.159 350.012C131.658 353.078 129.27 357.645 125.327 357.342L105.69 355.834C103.124 355.637 101.246 353.333 101.57 350.78Z" fill="#8AD4FF"/>
<path d="M101.57 350.78L104.049 331.242C104.547 327.318 109.502 325.899 112.001 328.965L129.159 350.012C131.658 353.078 129.27 357.645 125.327 357.342L105.69 355.834C103.124 355.637 101.246 353.333 101.57 350.78Z" stroke="white"/>
<path d="M107.294 347.145L89.1689 342.029C85.3795 340.96 82.1408 344.929 83.949 348.426L95.7676 371.289C97.5758 374.787 102.687 374.439 104.005 370.729L110.312 352.983C111.183 350.531 109.799 347.852 107.294 347.145Z" fill="#8AD4FF"/>
<path d="M107.294 347.145L89.1689 342.029C85.3795 340.96 82.1408 344.929 83.949 348.426L95.7676 371.289C97.5758 374.787 102.687 374.439 104.005 370.729L110.312 352.983C111.183 350.531 109.799 347.852 107.294 347.145Z" fill="#8AD4FF"/>
<path d="M107.294 347.145L89.1689 342.029C85.3795 340.96 82.1408 344.929 83.949 348.426L95.7676 371.289C97.5758 374.787 102.687 374.439 104.005 370.729L110.312 352.983C111.183 350.531 109.799 347.852 107.294 347.145Z" fill="#8AD4FF"/>
<path d="M107.294 347.145L89.1689 342.029C85.3795 340.96 82.1408 344.929 83.949 348.426L95.7676 371.289C97.5758 374.787 102.687 374.439 104.005 370.729L110.312 352.983C111.183 350.531 109.799 347.852 107.294 347.145Z" fill="#8AD4FF"/>
<path d="M107.294 347.145L89.1689 342.029C85.3795 340.96 82.1408 344.929 83.949 348.426L95.7676 371.289C97.5758 374.787 102.687 374.439 104.005 370.729L110.312 352.983C111.183 350.531 109.799 347.852 107.294 347.145Z" fill="#8AD4FF"/>
<path d="M107.294 347.145L89.1689 342.029C85.3795 340.96 82.1408 344.929 83.949 348.426L95.7676 371.289C97.5758 374.787 102.687 374.439 104.005 370.729L110.312 352.983C111.183 350.531 109.799 347.852 107.294 347.145Z" stroke="white"/>
<path d="M103.319 345.212C103.386 345.22 103.267 345.713 103.251 345.779C103.207 345.954 103.15 346.124 103.103 346.298C103.09 346.347 103.072 346.398 103.064 346.449C103.027 346.702 103.137 345.942 103.174 345.688C103.221 345.37 103.171 345.582 103.159 345.692C103.151 345.762 103.141 345.834 103.126 345.904C103.099 346.036 103.07 346.167 103.04 346.298C103.028 346.35 103.041 346.505 103.018 346.457C102.998 346.415 103.015 346.323 103.018 346.281C103.027 346.135 103.062 346 103.102 345.861C103.147 345.701 103.18 345.538 103.226 345.379C103.297 345.136 103.368 344.921 103.616 344.815C103.647 344.801 103.719 344.759 103.738 344.815C103.759 344.875 103.759 344.997 103.758 345.046C103.751 345.313 103.71 345.577 103.672 345.84C103.628 346.141 103.586 346.44 103.569 346.743C103.563 346.856 103.561 346.924 103.56 347.033C103.559 347.081 103.523 347.202 103.562 347.175C103.596 347.153 103.6 347.103 103.617 347.067C103.66 346.979 103.825 346.639 103.847 346.594C104.028 346.219 104.19 345.819 104.41 345.464C104.415 345.456 104.441 345.402 104.438 345.454C104.435 345.524 104.397 345.689 104.389 345.731C104.349 345.915 104.3 346.121 104.259 346.303C104.217 346.483 104.131 346.72 104.133 346.91C104.134 346.952 104.21 346.873 104.235 346.839C104.279 346.778 104.57 346.335 104.589 346.307C104.65 346.216 104.868 345.894 104.952 345.792C105.135 345.567 105.072 345.838 105.044 345.967C104.925 346.509 104.735 347.032 104.601 347.569C104.586 347.628 104.561 347.688 104.566 347.748C104.567 347.764 104.601 347.767 104.614 347.757C104.668 347.716 104.711 347.66 104.754 347.606C104.901 347.421 105.226 346.952 105.343 346.786C105.425 346.669 105.862 346.037 105.971 345.893C106.023 345.824 106.071 345.748 106.138 345.694C106.151 345.683 106.184 345.705 106.181 345.722C106.156 345.864 105.897 346.493 105.88 346.533C105.67 347.048 105.413 347.555 105.241 348.084C105.183 348.262 105.174 348.325 105.329 348.169C105.495 348.002 105.826 347.572 105.943 347.425C106.075 347.259 106.221 347.103 106.337 346.926C106.398 346.833 106.55 346.698 106.471 346.62C106.379 346.529 106.209 346.635 106.088 346.679C105.388 346.936 104.74 347.316 104.05 347.599C103.726 347.732 103.249 347.942 102.854 347.919C102.802 347.916 102.631 347.809 102.582 347.771C102.466 347.68 102.379 347.554 102.312 347.424C102.28 347.363 102.219 347.256 102.23 347.181C102.237 347.133 102.506 347.076 102.549 347.061C102.682 347.015 102.801 346.956 102.925 346.893C103.068 346.82 103.293 346.716 103.322 346.54C103.356 346.338 103.377 346.128 103.383 345.923C103.383 345.916 103.388 345.888 103.399 345.911C103.434 345.987 103.418 346.114 103.412 346.194C103.398 346.398 103.269 346.605 103.094 346.713C102.916 346.823 102.718 346.797 102.518 346.797" stroke="#8AD4FF" stroke-linecap="round"/>
<path d="M102.02 346.493C102.319 346.491 102.558 346.483 102.802 346.302C103.177 346.024 103.303 345.575 103.478 345.161" stroke="#8AD4FF" stroke-linecap="round"/>
<path d="M109.323 348.612C108.811 348.523 108.259 348.554 107.744 348.531C107.351 348.512 106.841 348.671 106.572 348.384C106.426 348.227 106.942 348.161 107.145 348.093C107.643 347.927 108.15 347.784 108.665 347.679C108.885 347.635 109.135 347.609 108.801 347.455C108.48 347.307 108.145 347.18 107.814 347.056C107.776 347.042 107.363 346.853 107.574 347.064C107.774 347.264 108 347.445 108.224 347.617C108.248 347.635 108.575 347.834 108.313 347.757C108.084 347.689 107.878 347.567 107.667 347.459C107.495 347.371 106.948 347.219 107.141 347.219C107.364 347.219 108.272 347.687 108.224 347.706C107.723 347.905 106.107 348.034 106.645 348.055C107.16 348.074 107.679 348.055 108.193 348.055C108.503 348.055 109.409 348.17 109.122 348.055C108.97 347.994 108.621 347.995 108.483 347.973C107.995 347.897 107.515 347.787 107.032 347.683C106.44 347.555 107.346 347.71 107.489 347.737C107.83 347.804 107.406 347.737 107.338 347.726C106.857 347.645 106.374 347.552 105.899 347.443C105.454 347.342 106.81 347.474 107.265 347.505C108.162 347.566 109.059 347.648 109.957 347.699C110.12 347.708 110.202 347.68 110.097 347.737C109.776 347.912 109.797 348.235 109.896 348.558C110.093 349.202 110.485 349.802 110.886 350.337C111.161 350.706 111.023 350.467 110.855 350.252C110.658 350.001 110.185 349.234 109.803 349.239C109.407 349.243 109.444 350.616 109.439 350.809C109.43 351.186 109.396 352.072 109.88 352.233" stroke="#8AD4FF" stroke-linecap="round"/>
<path d="M110.152 355.35C109.398 355.528 108.692 355.915 107.982 356.211" stroke="#8AD4FF" stroke-linecap="round"/>
<path d="M110.598 354.521C110.34 354.53 110.083 354.548 109.826 354.562C109.8 354.563 109.743 354.577 109.749 354.551C109.768 354.46 109.935 354.289 109.977 354.236C110.243 353.906 110.549 353.605 110.804 353.267C110.807 353.263 110.882 353.158 110.8 353.214C110.612 353.341 110.453 353.539 110.306 353.706C110.013 354.039 109.737 354.387 109.459 354.732C109.435 354.762 109.411 354.802 109.383 354.83C109.358 354.855 109.4 354.76 109.413 354.726C109.575 354.296 109.791 353.877 109.917 353.435C109.926 353.405 109.976 353.257 109.9 353.246C109.831 353.236 109.747 353.311 109.697 353.347C109.665 353.37 109.64 353.406 109.602 353.417C109.597 353.419 109.595 353.408 109.597 353.404C109.626 353.32 109.682 353.248 109.728 353.172C110.041 352.65 110.361 352.128 110.638 351.586C110.676 351.513 110.678 351.489 110.629 351.568C110.553 351.691 110.497 351.82 110.459 351.959C110.449 351.998 110.394 352.175 110.427 352.225C110.431 352.232 110.443 352.221 110.447 352.215C110.483 352.166 110.526 352.047 110.541 352.005C110.583 351.888 110.615 351.785 110.641 351.663C110.659 351.581 110.701 351.414 110.612 351.347C110.53 351.285 110.387 351.327 110.317 351.386C110.206 351.48 110.181 351.636 110.183 351.774C110.184 351.831 110.217 351.97 110.255 351.929C110.327 351.851 110.352 351.695 110.379 351.599C110.393 351.55 110.438 351.439 110.428 351.38C110.426 351.364 110.398 351.395 110.385 351.405" stroke="#8AD4FF" stroke-linecap="round"/>
<path d="M110.451 351.618C110.451 351.732 110.43 351.867 110.465 351.977C110.552 352.254 110.948 352.04 111.062 351.907C111.124 351.834 111.153 351.739 111.036 351.894C110.833 352.161 110.642 352.441 110.465 352.726C110.444 352.761 110.421 352.795 110.405 352.832C110.4 352.844 110.389 352.866 110.401 352.869C110.421 352.874 110.439 352.854 110.457 352.845C110.487 352.83 110.515 352.812 110.545 352.797C110.611 352.764 110.823 352.632 110.893 352.73C110.931 352.783 110.917 352.907 110.906 352.955C110.885 353.045 110.78 353.318 110.726 353.376C110.51 353.607 110.464 353.105 110.456 353.053C110.376 352.587 110.363 351.785 110.336 351.324C110.327 351.159 110.332 350.718 110.219 350.508C110.199 350.47 110.153 350.453 110.119 350.425C110.085 350.395 110.051 350.364 110.016 350.336C109.956 350.288 109.837 350.178 109.796 350.31C109.744 350.479 109.773 350.694 109.838 350.855C109.86 350.911 109.972 351.123 110.047 350.983C110.14 350.809 110.138 350.546 110.106 350.357C110.092 350.275 110.064 350.2 110.022 350.128C110.006 350.1 109.938 350.032 109.963 350.051C110.179 350.213 110.4 350.364 110.624 350.514C110.836 350.655 111.064 350.783 111.267 350.938C111.332 350.987 111.204 350.969 111.183 350.969C111.129 350.969 111.073 350.965 111.018 350.97C110.999 350.971 111.003 350.987 111.006 351.002C111.024 351.096 111.055 351.173 111.046 351.272C111.03 351.452 110.986 351.574 110.91 351.748C110.76 352.093 110.605 352.351 110.405 352.677C109.995 353.348 109.541 353.992 109.155 354.678C109.05 354.865 108.95 355.057 108.885 355.263C108.873 355.303 108.842 355.365 108.844 355.409C108.845 355.431 108.862 355.42 108.877 355.413C108.918 355.395 108.991 355.351 109.024 355.331C109.107 355.281 109.191 355.23 109.269 355.173C109.309 355.145 109.203 355.159 109.2 355.159C109.122 355.159 109.036 355.151 108.96 355.173C108.879 355.197 108.836 355.274 108.78 355.33C108.73 355.381 108.694 355.412 108.633 355.448C108.558 355.492 108.499 355.49 108.42 355.509" stroke="#8AD4FF" stroke-linecap="round"/>
<path d="M107.371 344.409C107.371 345.205 107.411 346.014 107.37 346.809C107.363 346.933 107.23 346.657 107.215 346.631C107.21 346.622 107.114 346.429 107.082 346.475C107.028 346.553 107.056 346.711 107.056 346.799" stroke="#8AD4FF" stroke-linecap="round"/>
<path d="M108.766 355.418C108.597 355.614 108.449 355.827 108.294 356.033C108.216 356.136 108.138 356.238 108.063 356.342C108.046 356.366 108.033 356.392 108.019 356.418C107.999 356.453 107.977 356.485 107.959 356.521C107.927 356.584 107.889 356.646 107.863 356.711" stroke="#8AD4FF" stroke-linecap="round"/>
<path d="M109.637 355.262C109.829 355.262 110.021 355.262 110.213 355.262C110.348 355.262 110.486 355.254 110.62 355.264C110.712 355.271 110.803 355.29 110.895 355.273C110.933 355.267 110.971 355.26 111.009 355.258C111.018 355.258 111.059 355.258 111.022 355.258C110.736 355.258 110.445 355.28 110.169 355.357C110.089 355.38 110.009 355.402 109.929 355.426C109.925 355.427 109.882 355.439 109.895 355.432C109.959 355.398 110.014 355.39 110.092 355.379C110.605 355.308 111.125 355.297 111.641 355.258" stroke="#8AD4FF" stroke-linecap="round"/>
<path d="M100.937 346.802C101.16 346.802 101.384 346.806 101.607 346.801C101.681 346.799 101.753 346.791 101.826 346.774C101.957 346.743 102.085 346.713 102.218 346.692C102.238 346.689 102.296 346.684 102.277 346.681C102.241 346.678 102.206 346.676 102.17 346.672C101.978 346.651 101.788 346.627 101.597 346.589C101.469 346.564 101.342 346.537 101.213 346.512C101.144 346.499 101.075 346.486 101.009 346.461C100.995 346.455 100.874 346.416 100.879 346.393C100.88 346.389 100.888 346.391 100.892 346.39C100.921 346.389 100.918 346.39 100.954 346.387C101.071 346.376 101.188 346.355 101.306 346.342C101.416 346.329 101.528 346.326 101.637 346.31C101.74 346.296 101.842 346.28 101.945 346.266C102.075 346.248 102.206 346.208 102.331 346.168C102.449 346.13 102.563 346.083 102.654 345.996C102.752 345.902 102.828 345.784 102.894 345.666C102.953 345.561 102.987 345.449 103.027 345.336C103.057 345.253 103.092 345.175 103.141 345.101C103.154 345.082 103.168 345.056 103.195 345.056" stroke="#8AD4FF" stroke-linecap="round"/>
</svg>
